<?xml version="1.0" encoding="UTF-8"?>
<svg width="36px" height="36px" viewBox="0 0 36 36" version="1.1" xmlns="http://www.w3.org/2000/svg" xmlns:xlink="http://www.w3.org/1999/xlink">
    <!-- Generator: Sketch 48.2 (47327) - http://www.bohemiancoding.com/sketch -->
    <title>socialIconFacebook</title>
    <desc>Created with Sketch.</desc>
    <defs></defs>
    <g id="socialIconFacebook" stroke="none" stroke-width="1" fill="none" fill-rule="evenodd">
        <path d="M34.0131438,0 L1.98685621,0 C0.889431759,0 0,0.889428427 0,1.98684876 L0,34.0130164 C0,35.1103018 0.889431759,36 1.98685621,36 L19.2288024,36 L19.2288024,22.0588771 L14.537232,22.0588771 L14.537232,16.6257292 L19.2288024,16.6257292 L19.2288024,12.618985 C19.2288024,7.96924633 22.0686715,5.43732929 26.2166553,5.43732929 C28.2036464,5.43732929 29.9112906,5.5851627 30.4088814,5.65125611 L30.4088814,10.5106053 L27.5320539,10.5119541 C25.276237,10.5119541 24.8393445,11.5838813 24.8393445,13.1569044 L24.8393445,16.6257292 L30.2195029,16.6257292 L29.519045,22.0588771 L24.8393445,22.0588771 L24.8393445,36 L34.0131438,36 C35.1104334,36 36,35.1103018 36,34.0130164 L36,1.98684876 C36,0.889428427 35.1104334,0 34.0131438,0" fill="#FFFFFF"></path>
    </g>
</svg>