<?xml version="1.0" encoding="UTF-8"?>
<svg width="58px" height="38px" viewBox="0 0 58 38" version="1.1" xmlns="http://www.w3.org/2000/svg" xmlns:xlink="http://www.w3.org/1999/xlink">
    <!-- Generator: Sketch 48.2 (47327) - http://www.bohemiancoding.com/sketch -->
    <title>socialIconSpotify</title>
    <desc>Created with Sketch.</desc>
    <defs></defs>
    <g id="socialIconSpotify" stroke="none" stroke-width="1" fill="none" fill-rule="evenodd" transform="translate(-12.000000, -21.000000)">
        <g transform="translate(12.000000, 21.000000)" fill="#FFFFFF" id="Path">
            <path d="M51.6614404,14.4608743 C38.767706,6.80363732 17.4993014,6.09957847 5.19069057,9.8352937 C3.21416715,10.4347468 1.1239626,9.31895203 0.524987163,7.34290627 C-0.0739882736,5.36494991 1.04085118,3.27617831 3.01880754,2.67529226 C17.1482273,-1.61354382 40.6367577,-0.785295487 55.480267,8.02594844 C57.2585649,9.0810814 57.8413002,11.3776316 56.7871225,13.1525859 C55.7324672,14.9299285 53.4349617,15.516485 51.6614404,14.4608743"></path>
            <path d="M51.2391961,25.8022402 C50.3350011,27.2700644 48.4153183,27.7300431 46.9494047,26.8291917 C36.1998495,20.2218335 19.8082705,18.3074048 7.09078968,22.1677872 C5.44145779,22.6664557 3.69946145,21.7359899 3.19888229,20.0900016 C2.70212436,18.4411473 3.63211253,16.7020169 5.27857851,16.2009601 C19.8063599,11.7922334 37.8663769,13.9273372 50.2131999,21.5148371 C51.6791135,22.4175991 52.1405252,24.3377596 51.2391961,25.8022402"></path>
            <path d="M46.3442198,36.6941356 C45.6258314,37.8729804 44.0906583,38.2422053 42.91659,37.5238169 C33.5230885,31.7829192 21.7007272,30.486572 7.77717541,33.6667781 C6.43497367,33.9748636 5.0980261,33.1337186 4.79185126,31.7919946 C4.48472111,30.4507481 5.32204483,29.1133229 6.66711248,28.8071481 C21.9042069,25.323633 34.9741949,26.8229822 45.5174044,33.2655506 C46.6929057,33.9834613 47.0630859,35.519112 46.3442198,36.6941356"></path>
        </g>
    </g>
</svg>